<?xml version="1.0" encoding="iso-8859-1"?>
<!-- Generator: Adobe Illustrator 19.0.0, SVG Export Plug-In . SVG Version: 6.00 Build 0)  -->
<svg xmlns="http://www.w3.org/2000/svg" xmlns:xlink="http://www.w3.org/1999/xlink" version="1.1" id="Layer_1" x="0px" y="0px" viewBox="0 0 291.7 291.7" style="enable-background:new 0 0 291.7 291.7;" xml:space="preserve" width="512" height="512">
<g>
	<g>
		<path style="fill:#C0491F;" d="M133.411,121.592l-13.141,13.141L7.558,247.445C-2.517,257.52-2.375,273.997,7.7,284.072l0,0    c10.075,10.075,26.552,10.217,36.627,0.143l75.943-75.943l49.911-49.911L133.411,121.592z"/>
	</g>
	<circle style="fill:#1C7287;" cx="192.332" cy="99.295" r="99.295"/>
	<path style="fill:#165C6C;" d="M173.368,196.772c-18.777-3.635-36.706-12.724-51.247-27.265   c-38.777-38.777-38.777-101.647,0-140.424c14.516-14.516,32.409-23.598,51.149-27.246L173.368,196.772z"/>
	<path style="fill:#32A5B9;" d="M248.707,155.67c-31.135,31.135-81.615,31.135-112.75,0c-6.121-6.121-11.038-12.989-14.753-20.311   c-11.143-21.966-11.456-48.016-0.94-70.211c3.81-8.041,9.04-15.575,15.692-22.227c31.135-31.135,81.615-31.135,112.75,0   S279.842,124.535,248.707,155.67z"/>
	<path style="fill:#2B8A9A;" d="M173.27,21.871c-13.673,3.353-26.631,10.368-37.313,21.049   c-6.652,6.652-11.883,14.187-15.692,22.227c-10.516,22.196-10.203,48.245,0.94,70.211c3.714,7.322,8.631,14.191,14.752,20.311   c10.681,10.681,23.64,17.696,37.313,21.049V21.871z"/>
	<path style="fill:#E6E6E6;" d="M219.218,79.909c-1.919,0-3.839-0.732-5.304-2.196c-11.901-11.901-31.264-11.899-43.163,0   c-2.93,2.928-7.678,2.928-10.607,0c-2.929-2.93-2.929-7.678,0-10.607c17.751-17.748,46.629-17.747,64.378,0   c2.929,2.93,2.929,7.678,0,10.607C223.057,79.177,221.137,79.909,219.218,79.909z"/>
	<path style="fill:#C4C8C4;" d="M173.268,75.458c-0.87,0.697-1.71,1.449-2.517,2.255c-2.93,2.928-7.678,2.928-10.607,0   c-2.929-2.93-2.929-7.678,0-10.607c3.914-3.913,8.369-6.964,13.126-9.151L173.268,75.458z"/>
</g>















</svg>
