<?xml version="1.0" encoding="iso-8859-1"?>
<!-- Generator: Adobe Illustrator 19.0.0, SVG Export Plug-In . SVG Version: 6.00 Build 0)  -->
<svg version="1.1" id="Layer_1" xmlns="http://www.w3.org/2000/svg" xmlns:xlink="http://www.w3.org/1999/xlink" x="0px" y="0px"
	 viewBox="0 0 481.632 481.632" style="enable-background:new 0 0 481.632 481.632;" xml:space="preserve">
<path style="fill:#0EE0B8;" d="M379.216,0.8h-276.8c-12,0-21.6,9.6-21.6,20.8v284l136.8,132h161.6c12,0,21.6-9.6,21.6-21.6V21.6
	C400.816,10.4,391.216,0.8,379.216,0.8z"/>
<path style="fill:#D0F0F4;" d="M379.216,0.8h-276.8c-12,0-21.6,9.6-21.6,20.8v284l136.8,132h161.6c12,0,21.6-9.6,21.6-21.6V21.6
	C400.816,10.4,391.216,0.8,379.216,0.8z"/>
<path style="fill:#B9E9EA;" d="M400.816,341.6v-320c0-11.2-9.6-20.8-21.6-20.8h-276.8c-12,0-21.6,9.6-21.6,20.8"/>
<path style="fill:#A3E5E5;" d="M400.816,341.6v-320c0-11.2-9.6-20.8-21.6-20.8h-174.4"/>
<path style="fill:#B9E9EA;" d="M200.816,311.2v106.4c0,1.6,0,3.2,0.8,4.8l16.8,16c0.8,0,2.4,0,4,0h111.2L200.816,311.2
	L200.816,311.2z"/>
<path style="fill:#A3E5E5;" d="M200.816,311.2v106.4c0,1.6,0,3.2,0.8,4.8l16.8,16c0.8,0,2.4,0,4,0h56.8l-64-106.4L200.816,311.2z"/>
<path style="fill:#34BFCE;" d="M217.616,437.6L217.616,437.6V327.2c0-12-9.6-21.6-21.6-21.6h-115.2L217.616,437.6z"/>
<polyline style="fill:#36B6CC;" points="80.816,306.4 217.616,437.6 218.416,437.6 218.416,328 "/>
<path style="fill:#FFFFFF;" d="M90.416,306.4L90.416,306.4V21.6c0-12,9.6-21.6,21.6-21.6h-9.6c-12,0.8-21.6,10.4-21.6,21.6v284l0,0
	h9.6V306.4z"/>
<path style="fill:#A3E5E5;" d="M384.816,345.6c0,34.4-5.6,85.6-40,85.6c-35.2,0-85.6-51.2-85.6-85.6c0-35.2,28-63.2,63.2-63.2
	C356.816,282.4,384.816,310.4,384.816,345.6z"/>
<g>
	<path style="fill:#36B6CC;" d="M350.416,68.8c0,2.4-1.6,4-4,4h-212c-2.4,0-4-1.6-4-4l0,0c0-2.4,1.6-4,4-4h212
		C348.816,64.8,350.416,66.4,350.416,68.8L350.416,68.8z"/>
	<path style="fill:#36B6CC;" d="M350.416,100.8c0,2.4-1.6,4-4,4h-212c-2.4,0-4-1.6-4-4l0,0c0-2.4,1.6-4,4-4h212
		C348.816,96.8,350.416,98.4,350.416,100.8L350.416,100.8z"/>
	<path style="fill:#36B6CC;" d="M350.416,132.8c0,2.4-1.6,4-4,4h-212c-2.4,0-4-1.6-4-4l0,0c0-2.4,1.6-4,4-4h212
		C348.816,128.8,350.416,131.2,350.416,132.8L350.416,132.8z"/>
	<path style="fill:#36B6CC;" d="M350.416,164.8c0,2.4-1.6,4-4,4h-212c-2.4,0-4-1.6-4-4l0,0c0-2.4,1.6-4,4-4h212
		C348.816,161.6,350.416,163.2,350.416,164.8L350.416,164.8z"/>
	<path style="fill:#36B6CC;" d="M350.416,197.6c0,2.4-1.6,4-4,4h-212c-2.4,0-4-1.6-4-4l0,0c0-2.4,1.6-4,4-4h212
		C348.816,193.6,350.416,195.2,350.416,197.6L350.416,197.6z"/>
	<path style="fill:#36B6CC;" d="M350.416,229.6c0,2.4-1.6,4-4,4h-212c-2.4,0-4-1.6-4-4l0,0c0-2.4,1.6-4,4-4h212
		C348.816,225.6,350.416,227.2,350.416,229.6L350.416,229.6z"/>
</g>
<path style="fill:#FF3C00;" d="M352.016,371.2h-60.8c-4,0-8,3.2-8,8v94.4c0,3.2,1.6,5.6,4.8,7.2c0.8,0,1.6,0.8,3.2,0.8
	c2.4,0,4-0.8,5.6-2.4l24.8-24.8l24.8,24.8c2.4,2.4,5.6,3.2,8.8,1.6c3.2-0.8,4.8-4,4.8-7.2v-94.4
	C360.016,375.2,356.016,371.2,352.016,371.2z"/>
<path style="fill:#CE2C00;" d="M360.016,379.2c0-4-3.2-8-8-8h-60.8c-4,0-8,3.2-8,8v38.4l36.8,36.8l0.8-0.8l24.8,24.8
	c2.4,2.4,5.6,3.2,8.8,1.6c3.2-0.8,4.8-4,4.8-7.2v-93.6H360.016z"/>
<circle style="fill:#EFB30C;" cx="321.616" cy="345.6" r="63.2"/>
<path style="fill:#FFD508;" d="M263.216,349.6c0-35.2,28-63.2,63.2-63.2c16,0,31.2,6.4,42.4,16.8c-11.2-12.8-28-20.8-46.4-20.8
	c-35.2,0-63.2,28-63.2,63.2c0,18.4,8,35.2,20.8,46.4C269.616,380.8,263.216,365.6,263.216,349.6z"/>
<path style="fill:#ED9D0F;" d="M366.416,300.8c24.8,24.8,24.8,64.8,0,88.8c-24.8,24.8-64.8,24.8-88.8,0"/>
<g>
</g>
<g>
</g>
<g>
</g>
<g>
</g>
<g>
</g>
<g>
</g>
<g>
</g>
<g>
</g>
<g>
</g>
<g>
</g>
<g>
</g>
<g>
</g>
<g>
</g>
<g>
</g>
<g>
</g>
</svg>
