<?xml version="1.0" encoding="iso-8859-1"?>
<!-- Generator: Adobe Illustrator 19.0.0, SVG Export Plug-In . SVG Version: 6.00 Build 0)  -->
<svg version="1.1" id="Layer_1" xmlns="http://www.w3.org/2000/svg" xmlns:xlink="http://www.w3.org/1999/xlink" x="0px" y="0px"
	 viewBox="0 0 496 496" style="enable-background:new 0 0 496 496;" xml:space="preserve">
<path style="fill:#8EA5A4;" d="M496,476.8c0,10.4-8.8,19.2-19.2,19.2H19.2C8.8,496,0,487.2,0,476.8V19.2C0,8.8,8.8,0,19.2,0h457.6
	C487.2,0,496,8.8,496,19.2V476.8z"/>
<path style="fill:#FDFFFF;" d="M16,80v381.6C16,472,23.2,480,32.8,480h430.4c9.6,0,16.8-8,16.8-18.4V80H16z"/>
<path style="fill:#E8EFEF;" d="M463.2,480c9.6,0,16.8-8.8,16.8-18.4V80H16"/>
<rect x="16" y="80" style="fill:#DCE5E5;" width="464" height="24"/>
<path style="fill:#FDFFFF;" d="M395.2,40c0,9.6-8,16-17.6,16H32c-9.6,0-8-6.4-8-16l0,0c0-9.6-1.6-16,8-16h345.6
	C387.2,24,395.2,30.4,395.2,40L395.2,40z"/>
<path style="fill:#E6EFEF;" d="M24,40.8L24,40.8c0-9.6-1.6-16.8,8-16.8h345.6c9.6,0,17.6,7.2,17.6,16.8l0,0"/>
<circle style="opacity:0.4;fill:#B1BCBC;enable-background:new    ;" cx="426.4" cy="41.6" r="8.8"/>
<circle style="fill:#FFFFFF;" cx="426.4" cy="37.6" r="8.8"/>
<path style="fill:#E8EFEE;" d="M420,31.2c3.2-3.2,9.6-3.2,12.8,0c3.2,3.2,3.2,9.6,0,12.8"/>
<circle style="opacity:0.4;fill:#B1BCBC;enable-background:new    ;" cx="462.4" cy="41.6" r="8.8"/>
<circle style="fill:#FFFFFF;" cx="462.4" cy="37.6" r="8.8"/>
<path style="fill:#E8EFEE;" d="M456,31.2c3.2-3.2,9.6-3.2,12.8,0c3.2,3.2,3.2,9.6,0,12.8"/>
<path style="fill:#8EA5A4;" d="M100.8,32l-0.8-0.8h-2.4c-0.8,0-0.8,0-0.8,0.8l-1.6,6.4l0,0l0,0L92.8,32c-0.8,0-0.8,0-1.6,0h-2.4
	C88,32,88,32,88,32.8L85.6,40l0,0l0,0L84,33.6c0-1.6,0-1.6-0.8-1.6h-2.4H80h-0.8h-2.4C76,32,76,32,76,32.8l-1.6,6.4l0,0l0,0L72,32.8
	c0-0.8-0.8-0.8-1.6-0.8h-1.6c-0.8,0-0.8,0-1.6,0.8l-1.6,6.4l0,0l0,0l-2.4-6.4c0-0.8,0-0.8-0.8-0.8H60h-0.8c0,0,0,0-0.8,0H56
	c0,0-0.8,0-0.8,0.8l-1.6,6.4l0,0l0,0l-2.4-6.4c0-0.8-0.8-0.8-1.6-0.8H48c-0.8,0-0.8,0-0.8,0.8l-2.4,6.4l0,0l0,0l-1.6-6.4
	C42.4,32,42.4,32,41.6,32h-2.4c0,0-0.8,0-0.8,0.8v0.8l4,13.6c0,0.8,0.8,0.8,0.8,0.8h2.4c0.8,0,0.8,0,0.8-0.8l2.4-7.2c0,0,0,0,0-0.8
	c0,0,0,0,0,0.8l2.4,6.4c0,0.8,0.8,0.8,0.8,0.8h2.4c0.8,0,0.8,0,0.8-0.8l4-12l3.2,12c0,0.8,0.8,0.8,0.8,0.8h2.4c0.8,0,0.8,0,0.8-0.8
	l3.2-6.4c0,0,0,0,0-0.8c0,0,0,0,0,0.8l2.4,6.4c0,0.8,0.8,0.8,0.8,0.8h2.4c0.8,0,0.8,0,0.8-0.8l4-12l3.2,12c0,0.8,0.8,0.8,0.8,0.8
	h2.4c0.8,0,0.8,0,0.8-0.8l3.2-6.4c0,0,0,0,0-0.8c0,0,0,0,0,0.8l2.4,6.4c0,0.8,0.8,0.8,0.8,0.8H96c0.8,0,0.8,0,0.8-0.8l4-13.6
	C101.6,32.8,101.6,32,100.8,32z"/>
<g>
	<path style="fill:#DCE5E5;" d="M242.4,238.4c-0.8,0-0.8,0-1.6,0c-1.6,0-2.4,0.8-4,0.8c-0.8,0-0.8,0-1.6,0.8c-1.6,0-2.4,0.8-4,1.6
		c-0.8,0-0.8,0-1.6,0.8c-1.6,0.8-3.2,1.6-4.8,2.4c0,0,0,0-0.8,0c-3.2,1.6-6.4,4-9.6,6.4l0,0c-1.6,1.6-2.4,2.4-4,4l0,0
		c-8,8.8-12.8,20.8-12.8,33.6c0,28,22.4,50.4,50.4,50.4c12.8,0,24.8-4.8,33.6-12.8l0,0l0,0c1.6-0.8,2.4-2.4,3.2-3.2l0,0
		c0.8-1.6,2.4-2.4,3.2-4l0,0c0.8-1.6,1.6-2.4,2.4-4v-0.8c0.8-1.6,1.6-2.4,1.6-4c0,0,0-0.8,0.8-0.8c0.8-1.6,0.8-2.4,1.6-4
		c0,0,0-0.8,0.8-0.8c0-1.6,0.8-2.4,0.8-4c0-0.8,0-0.8,0-1.6c0-1.6,0.8-2.4,0.8-4c0-0.8,0-0.8,0-1.6c0-1.6,0-3.2,0-5.6
		c0-28-22.4-50.4-50.4-50.4C246.4,238.4,244,238.4,242.4,238.4z"/>
	<path style="fill:#DCE5E5;" d="M166.4,279.2c1.6-15.2,8-29.6,16.8-40.8l0,0c1.6-2.4,4-4,5.6-6.4c0.8-0.8,0.8-0.8,1.6-1.6
		c1.6-1.6,3.2-3.2,4.8-4c0.8-0.8,1.6-0.8,2.4-1.6c1.6-1.6,3.2-2.4,4.8-4c0.8-0.8,1.6-0.8,1.6-1.6c4.8-3.2,9.6-5.6,15.2-7.2
		c0.8,0,1.6-0.8,2.4-0.8c1.6-0.8,4-1.6,5.6-1.6c0.8,0,1.6-0.8,3.2-0.8c1.6-0.8,4-0.8,6.4-0.8c0.8,0,1.6,0,3.2,0
		c3.2,0,8.8-0.8,8.8-0.8v0.8h100.8c-24-32-60-48.8-100.8-48.8c-4.8,0-8.8,0-13.6,0c-0.8,0-2.4,0-3.2,0c-4,0.8-8.8,0.8-12.8,2.4l0,0
		c-4,0.8-8.8,2.4-12.8,4c-0.8,0-1.6,0.8-2.4,0.8c-4,1.6-8,3.2-12,4.8l0,0c-4,1.6-8,4-11.2,6.4c-0.8,0-1.6,0.8-1.6,0.8
		c-7.2,4.8-14.4,10.4-20.8,16c0,0-0.8,1.6-0.8,2.4c-3.2,3.2-6.4,2.4-8.8,10.4h-3.2v-0.8c-8,10.4-13.6,20.8-18.4,33.6L166.4,279.2z"
		/>
	<path style="fill:#DCE5E5;" d="M363.2,350.4c1.6-4,4-7.2,5.6-11.2c0-0.8,0-0.8,0.8-1.6c1.6-3.2,2.4-7.2,4-10.4
		c0-0.8,0.8-2.4,0.8-3.2c0.8-3.2,1.6-6.4,2.4-9.6c0.8-1.6,0.8-4,0.8-6.4s0.8-4.8,0.8-6.4c0.8-4,0.8-8,0.8-12
		c0-18.4-4-33.6-10.4-49.6h-55.2c11.2,16,17.6,30.4,17.6,49.6c0,3.2,0,5.6-0.8,8c0,1.6-0.8,3.2-0.8,4.8c0,1.6,0,2.4-0.8,3.2
		c-0.8,2.4-0.8,4-1.6,6.4c0,0.8,0,0.8-0.8,1.6c-0.8,2.4-1.6,4.8-2.4,7.2c0,0,0,0,0,0.8c-4,10.4-10.4,19.2-18.4,26.4l0,0l0,0
		l-70.4,70.4c4,0.8,8.8,0.8,13.6,0.8C297.6,420,341.6,391.2,363.2,350.4L363.2,350.4z"/>
	<path style="fill:#DCE5E5;" d="M190.4,348L190.4,348L190.4,348c-0.8-0.8-0.8-0.8-0.8-0.8L118.4,276c-0.8,4-0.8,8.8-0.8,12.8
		c0,54.4,33.6,101.6,81.6,120.8l39.2-39.2C219.2,368.8,203.2,360,190.4,348z"/>
</g>
<circle style="fill:#82CC00;" cx="248" cy="280" r="50.4"/>
<path style="fill:#5DBA02;" d="M248,229.6c-16.8,0-32,8-40.8,20.8l75.2,67.2c10.4-9.6,16.8-22.4,16.8-37.6
	C298.4,252,276,229.6,248,229.6z"/>
<path style="fill:#82CC00;" d="M166.4,269.6c4.8-40.8,41.6-72,81.6-72.8v3.2h100.8c-24-32-60-49.6-100.8-49.6
	c-54.4,0-101.6,32.8-120.8,80.8L166.4,269.6z"/>
<path style="fill:#5DBA02;" d="M248,150.4c-40.8,0-76.8,17.6-100.8,47.2l36,32c15.2-19.2,40.8-32,64.8-32v2.4h100.8
	C324.8,168,288.8,150.4,248,150.4z"/>
<path style="fill:#82CC00;" d="M312.8,232c11.2,8,17.6,30.4,17.6,49.6c0,23.2-9.6,44-25.6,58.4l-70.4,70.4c4,0.8,8.8,0.8,13.6,0.8
	c72,0,130.4-57.6,130.4-129.6c0-18.4-4-33.6-10.4-49.6L312.8,232L312.8,232z"/>
<path style="fill:#5DBA02;" d="M312.8,232c11.2,8,17.6,30.4,17.6,49.6c0,23.2-9.6,43.2-24.8,58.4l36,32
	c23.2-23.2,37.6-54.4,37.6-89.6c0-18.4-4-33.6-10.4-49.6h-56V232z"/>
<path style="fill:#82CC00;" d="M198.4,400.8l39.2-39.2c-18.4-2.4-35.2-10.4-47.2-23.2l0,0l0,0c0,0,0,0-0.8-0.8l-71.2-71.2
	c-0.8,4-0.8,8.8-0.8,12.8C117.6,334.4,151.2,381.6,198.4,400.8z"/>
<g>
</g>
<g>
</g>
<g>
</g>
<g>
</g>
<g>
</g>
<g>
</g>
<g>
</g>
<g>
</g>
<g>
</g>
<g>
</g>
<g>
</g>
<g>
</g>
<g>
</g>
<g>
</g>
<g>
</g>
</svg>
