<?xml version="1.0" encoding="iso-8859-1"?>
<!-- Generator: Adobe Illustrator 19.0.0, SVG Export Plug-In . SVG Version: 6.00 Build 0)  -->
<svg version="1.1" id="Layer_1" xmlns="http://www.w3.org/2000/svg" xmlns:xlink="http://www.w3.org/1999/xlink" x="0px" y="0px"
	 viewBox="0 0 512 512" style="enable-background:new 0 0 512 512;" xml:space="preserve">
<g>
	<rect x="184.448" y="417.128" style="fill:#2C3E50;" width="143.088" height="32"/>
	<polygon style="fill:#2C3E50;" points="381.984,459.752 130.016,459.752 178.416,417.208 333.584,417.208 	"/>
	<rect x="311.552" y="355.688" style="fill:#2C3E50;" width="32" height="77.536"/>
	<rect x="168.448" y="355.688" style="fill:#2C3E50;" width="32" height="77.536"/>
</g>
<path style="fill:#25B6D2;" d="M37.296,359.304C21.136,359.304,8,346.168,8,330.008V89.56C8,73.4,21.136,60.264,37.296,60.264
	h437.408C490.864,60.264,504,73.4,504,89.56v240.448c0,16.16-13.136,29.296-29.296,29.296H37.296z"/>
<g>
	<path style="fill:#2C3E50;" d="M474.704,68.248C486.448,68.248,496,77.8,496,89.56v240.448c0,11.744-9.552,21.296-21.296,21.296
		H37.296c-11.744,0-21.296-9.552-21.296-21.296V89.56c0-11.744,9.552-21.296,21.296-21.296h437.408 M474.704,52.248H37.296
		C16.784,52.248,0,69.032,0,89.56v240.448c0,20.512,16.784,37.296,37.296,37.296h437.408c20.512,0,37.296-16.784,37.296-37.296
		V89.56C512,69.032,495.216,52.248,474.704,52.248L474.704,52.248z"/>
	
		<rect x="327.797" y="266.334" transform="matrix(0.7071 0.7071 -0.7071 0.7071 306.5521 -175.4947)" style="fill:#2C3E50;" width="74.639" height="31.92"/>
	<polygon style="fill:#2C3E50;" points="316.944,303.992 385.776,235.144 302.448,220.664 	"/>
</g>
<g>
	<path style="fill:#FFFFFF;" d="M99.408,201.352L77.84,110.52h21.968l6.88,37.456c2.032,10.784,3.904,22.512,5.392,31.664h0.272
		c1.488-9.824,3.648-20.752,5.936-31.936l7.68-37.184h21.824l7.264,38.272c2.032,10.656,3.52,20.352,4.864,30.464h0.272
		c1.344-10.112,3.376-20.768,5.264-31.552l7.408-37.184h20.896l-23.456,90.832h-22.24l-7.68-39.072
		c-1.76-9.184-3.248-17.664-4.32-28.032h-0.272c-1.616,10.24-3.088,18.864-5.248,28.032l-8.624,39.072H99.408z"/>
	<path style="fill:#FFFFFF;" d="M219.744,201.352l-21.568-90.832h21.968l6.88,37.456c2.032,10.784,3.904,22.512,5.392,31.664h0.272
		c1.488-9.824,3.648-20.752,5.936-31.936l7.68-37.184h21.824l7.264,38.272c2.032,10.656,3.52,20.352,4.864,30.464h0.272
		c1.344-10.112,3.376-20.768,5.264-31.552l7.408-37.184h20.896l-23.456,90.832H268.4l-7.68-39.072
		c-1.744-9.168-3.232-17.664-4.32-28.032h-0.272c-1.616,10.24-3.088,18.864-5.248,28.032l-8.624,39.072H219.744z"/>
	<path style="fill:#FFFFFF;" d="M340.096,201.352l-21.568-90.832h21.968l6.88,37.456c2.032,10.784,3.904,22.512,5.392,31.664h0.272
		c1.488-9.824,3.648-20.752,5.936-31.936l7.68-37.184h21.824l7.264,38.272c2.032,10.656,3.52,20.352,4.864,30.464h0.272
		c1.344-10.112,3.376-20.768,5.264-31.552l7.408-37.184h20.896l-23.456,90.832h-22.24l-7.68-39.072
		c-1.744-9.168-3.232-17.664-4.32-28.032h-0.272c-1.616,10.24-3.088,18.864-5.248,28.032l-8.624,39.072H340.096z"/>
</g>
<g>
</g>
<g>
</g>
<g>
</g>
<g>
</g>
<g>
</g>
<g>
</g>
<g>
</g>
<g>
</g>
<g>
</g>
<g>
</g>
<g>
</g>
<g>
</g>
<g>
</g>
<g>
</g>
<g>
</g>
</svg>
