<?xml version="1.0" encoding="iso-8859-1"?>
<!-- Generator: Adobe Illustrator 19.0.0, SVG Export Plug-In . SVG Version: 6.00 Build 0)  -->
<svg fill="#fff" version="1.1" id="Layer_1" xmlns="http://www.w3.org/2000/svg" xmlns:xlink="http://www.w3.org/1999/xlink" x="0px" y="0px"
	 viewBox="0 0 301.295 301.295" style="enable-background:new 0 0 301.295 301.295;" xml:space="preserve">
<g>
	<g>
		<g>
			<path d="M294.126,257.186h-14.622V36.94c0-3.96-3.21-7.169-7.168-7.169H161.379c-3.959,0-7.169,3.21-7.169,7.169v220.246h-7.394
				V114.419c0-3.96-3.21-7.169-7.169-7.169H28.691c-3.96,0-7.169,3.21-7.169,7.169v90.783c0,0.009,0,0.017,0,0.026v51.958H7.169
				c-3.959,0-7.169,3.209-7.169,7.169s3.21,7.169,7.169,7.169h286.958c3.958,0,7.168-3.209,7.168-7.169
				C301.295,260.395,298.085,257.186,294.126,257.186z M132.479,257.186h-30.033l11.223-11.221c2.8-2.8,2.8-7.338,0-10.138
				c-2.799-2.799-7.338-2.799-10.138,0l-21.36,21.36h-37.02l20.301-20.301c2.8-2.8,2.8-7.338,0-10.138s-7.338-2.8-10.138,0
				l-19.455,19.455v-38.018l20.402-20.402c2.8-2.8,2.8-7.338,0-10.138s-7.338-2.8-10.138,0l-10.264,10.264v-66.321h96.62V257.186z
				 M265.167,257.186h-96.62V44.109h96.62V257.186z"/>
			<path d="M54.517,148.609h16.739c3.959,0,7.169-3.209,7.169-7.169s-3.21-7.169-7.168-7.169h-16.74
				c-3.959,0-7.169,3.209-7.169,7.169S50.558,148.609,54.517,148.609z"/>
			<path d="M230.249,77.826h16.74c3.959,0,7.169-3.209,7.169-7.169s-3.21-7.169-7.169-7.169h-16.74
				c-3.959,0-7.168,3.209-7.168,7.169S226.29,77.826,230.249,77.826z"/>
			<path d="M230.249,113.218h16.74c3.959,0,7.169-3.209,7.169-7.168c0-3.96-3.21-7.169-7.169-7.169h-16.74
				c-3.959,0-7.168,3.209-7.168,7.169C223.08,110.009,226.29,113.218,230.249,113.218z"/>
			<path d="M98.039,148.609h16.74c3.959,0,7.169-3.209,7.169-7.169s-3.21-7.169-7.169-7.169h-16.74
				c-3.959,0-7.168,3.209-7.168,7.169S94.08,148.609,98.039,148.609z"/>
			<path d="M98.039,184.001h16.74c3.959,0,7.169-3.209,7.169-7.169c0-3.959-3.21-7.168-7.169-7.168h-16.74
				c-3.959,0-7.168,3.209-7.168,7.168C90.87,180.792,94.08,184.001,98.039,184.001z"/>
			<path d="M98.039,219.392h16.74c3.959,0,7.169-3.209,7.169-7.168c0-3.96-3.21-7.169-7.169-7.169h-16.74
				c-3.959,0-7.168,3.209-7.168,7.169C90.87,216.183,94.08,219.392,98.039,219.392z"/>
			<path d="M230.249,148.609h16.74c3.959,0,7.169-3.209,7.169-7.169s-3.21-7.169-7.169-7.169h-16.74
				c-3.959,0-7.168,3.209-7.168,7.169S226.29,148.609,230.249,148.609z"/>
			<path d="M186.727,184.001h16.739c3.959,0,7.169-3.209,7.169-7.169c0-3.959-3.21-7.168-7.169-7.168h-16.739
				c-3.959,0-7.169,3.209-7.169,7.168C179.558,180.792,182.768,184.001,186.727,184.001z"/>
			<path d="M186.727,148.609h16.739c3.959,0,7.169-3.209,7.169-7.169s-3.21-7.169-7.169-7.169h-16.739
				c-3.959,0-7.169,3.209-7.169,7.169S182.768,148.609,186.727,148.609z"/>
			<path d="M186.727,219.392h16.739c3.959,0,7.169-3.209,7.169-7.168c0-3.96-3.21-7.169-7.169-7.169h-16.739
				c-3.959,0-7.169,3.209-7.169,7.169C179.558,216.183,182.768,219.392,186.727,219.392z"/>
			<path d="M230.249,219.392h16.74c3.959,0,7.169-3.209,7.169-7.168c0-3.96-3.21-7.169-7.169-7.169h-16.74
				c-3.959,0-7.168,3.209-7.168,7.169C223.08,216.183,226.29,219.392,230.249,219.392z"/>
			<path d="M230.249,184.001h16.74c3.959,0,7.169-3.209,7.169-7.169c0-3.959-3.21-7.168-7.169-7.168h-16.74
				c-3.959,0-7.168,3.209-7.168,7.168C223.08,180.792,226.29,184.001,230.249,184.001z"/>
			<path d="M186.727,77.826h16.739c3.959,0,7.169-3.209,7.169-7.169s-3.21-7.169-7.169-7.169h-16.739
				c-3.959,0-7.169,3.209-7.169,7.169S182.768,77.826,186.727,77.826z"/>
			<path d="M186.727,113.218h16.739c3.959,0,7.169-3.209,7.169-7.168c0-3.96-3.21-7.169-7.169-7.169h-16.739
				c-3.959,0-7.169,3.209-7.169,7.169C179.558,110.009,182.768,113.218,186.727,113.218z"/>
		</g>
	</g>
</g>
<g>
</g>
<g>
</g>
<g>
</g>
<g>
</g>
<g>
</g>
<g>
</g>
<g>
</g>
<g>
</g>
<g>
</g>
<g>
</g>
<g>
</g>
<g>
</g>
<g>
</g>
<g>
</g>
<g>
</g>
</svg>
