<?xml version="1.0" encoding="iso-8859-1"?>
<!-- Generator: Adobe Illustrator 19.1.0, SVG Export Plug-In . SVG Version: 6.00 Build 0)  -->
<svg fill="#fff" version="1.1" id="Capa_1" xmlns="http://www.w3.org/2000/svg" xmlns:xlink="http://www.w3.org/1999/xlink" x="0px" y="0px"
	 viewBox="0 0 270 270" style="enable-background:new 0 0 270 270;" xml:space="preserve">
<g>
	<g>
		<path d="M2.241,0v133.5h50.5V270h215.018V0H2.241z M52.741,118.5h-35.5V15h35.5V118.5z M252.759,255H67.741V15h185.018V255z"/>
		<path d="M114.305,216.07l-9.108,20.444l13.701,6.104l10.114-22.704c0.821,0.051,1.646,0.085,2.479,0.085
			c1.114,0,2.213-0.058,3.304-0.148l10.141,22.767l13.701-6.104l-9.266-20.801c12.864-6.543,21.702-19.903,21.702-35.297
			c0-21.827-17.757-39.584-39.583-39.584c-21.827,0-39.584,17.757-39.584,39.584C91.907,196.089,101.062,209.661,114.305,216.07z
			 M131.491,155.833c13.555,0,24.583,11.028,24.583,24.584c0,13.555-11.028,24.583-24.583,24.583
			c-13.556,0-24.584-11.028-24.584-24.583C106.907,166.861,117.936,155.833,131.491,155.833z"/>
		<rect x="99.407" y="49.5" width="123.959" height="15"/>
		<rect x="99.407" y="78.125" width="123.959" height="15"/>
		<rect x="99.407" y="106.75" width="123.959" height="15"/>
	</g>
	<g>
	</g>
	<g>
	</g>
	<g>
	</g>
	<g>
	</g>
	<g>
	</g>
	<g>
	</g>
	<g>
	</g>
	<g>
	</g>
	<g>
	</g>
	<g>
	</g>
	<g>
	</g>
	<g>
	</g>
	<g>
	</g>
	<g>
	</g>
	<g>
	</g>
</g>
<g>
</g>
<g>
</g>
<g>
</g>
<g>
</g>
<g>
</g>
<g>
</g>
<g>
</g>
<g>
</g>
<g>
</g>
<g>
</g>
<g>
</g>
<g>
</g>
<g>
</g>
<g>
</g>
<g>
</g>
</svg>
