<?xml version="1.0" encoding="iso-8859-1"?>
<!-- Generator: Adobe Illustrator 17.1.0, SVG Export Plug-In . SVG Version: 6.00 Build 0)  -->
<!DOCTYPE svg PUBLIC "-//W3C//DTD SVG 1.1//EN" "http://www.w3.org/Graphics/SVG/1.1/DTD/svg11.dtd">
<svg fill="#fff" version="1.1" id="Capa_1" xmlns="http://www.w3.org/2000/svg" xmlns:xlink="http://www.w3.org/1999/xlink" x="0px" y="0px"
	 viewBox="0 0 220.805 220.805" style="enable-background:new 0 0 220.805 220.805;" xml:space="preserve">
<path d="M205.402,220.805h-190c-2.209,0-4-1.791-4-4V42.001c0-1.636,0.996-3.106,2.515-3.714l95-38.002
	c1.232-0.491,2.629-0.342,3.728,0.401c1.1,0.744,1.758,1.985,1.758,3.313v76.097l89.515-35.808c1.232-0.491,2.629-0.343,3.728,0.401
	c1.1,0.744,1.758,1.985,1.758,3.313v168.803C209.402,219.014,207.611,220.805,205.402,220.805z M114.402,212.805h87V53.91
	l-87,34.802V212.805z M19.402,212.805h87V9.907l-87,34.802V212.805z M184.735,201.833c-2.209,0-4-1.791-4-4V162.21h-18.833v35.623
	c0,2.209-1.791,4-4,4s-4-1.791-4-4V162.21h-18.833v35.623c0,2.209-1.791,4-4,4s-4-1.791-4-4v-93.332c0-2.209,1.791-4,4-4
	s4,1.791,4,4v15.124h18.833v-27.79c0-2.209,1.791-4,4-4s4,1.791,4,4v27.79h18.833V82.251c0-2.209,1.791-4,4-4s4,1.791,4,4v115.582
	C188.735,200.042,186.944,201.833,184.735,201.833z M161.902,154.21h18.833v-26.585h-18.833V154.21z M135.069,154.21h18.833v-26.585
	h-18.833V154.21z M89.735,201.833c-2.209,0-4-1.791-4-4v-35.831H66.902v35.831c0,2.209-1.791,4-4,4c-2.209,0-4-1.791-4-4v-35.831
	H40.069v35.831c0,2.209-1.791,4-4,4s-4-1.791-4-4V61.667c0-2.209,1.791-4,4-4s4,1.791,4,4v23.166h18.833V49.002c0-2.209,1.791-4,4-4
	c2.209,0,4,1.791,4,4v35.831h18.833V39.417c0-2.209,1.791-4,4-4s4,1.791,4,4v158.416C93.735,200.042,91.944,201.833,89.735,201.833z
	 M66.902,154.002h18.833v-26.585H66.902V154.002z M40.069,154.002h18.833v-26.585H40.069V154.002z M66.902,119.417h18.833V92.833
	H66.902V119.417z M40.069,119.417h18.833V92.833H40.069V119.417z"/>
<g>
</g>
<g>
</g>
<g>
</g>
<g>
</g>
<g>
</g>
<g>
</g>
<g>
</g>
<g>
</g>
<g>
</g>
<g>
</g>
<g>
</g>
<g>
</g>
<g>
</g>
<g>
</g>
<g>
</g>
</svg>
